<mxfile host="65bd71144e">
    <diagram id="qhhgVpQUWNCosZ2mL5r4" name="페이지-1">
        <mxGraphModel dx="892" dy="790" grid="1" gridSize="10" guides="1" tooltips="1" connect="1" arrows="1" fold="1" page="1" pageScale="1" pageWidth="827" pageHeight="1169" background="#FFFFFF" math="0" shadow="0">
            <root>
                <mxCell id="0"/>
                <mxCell id="1" parent="0"/>
                <mxCell id="4" style="edgeStyle=orthogonalEdgeStyle;rounded=0;orthogonalLoop=1;jettySize=auto;html=1;exitX=1;exitY=0.25;exitDx=0;exitDy=0;entryX=0;entryY=0.25;entryDx=0;entryDy=0;fontFamily=Helvetica;fontColor=#5C5C5C;labelBackgroundColor=none;labelBorderColor=none;strokeColor=#006658;fontSize=13;" parent="1" edge="1">
                    <mxGeometry relative="1" as="geometry">
                        <mxPoint x="260" y="265" as="targetPoint"/>
                        <mxPoint x="160" y="265" as="sourcePoint"/>
                    </mxGeometry>
                </mxCell>
                <mxCell id="7" style="edgeStyle=orthogonalEdgeStyle;rounded=0;orthogonalLoop=1;jettySize=auto;html=1;exitX=0;exitY=0.75;exitDx=0;exitDy=0;entryX=1;entryY=0.75;entryDx=0;entryDy=0;fontFamily=Helvetica;fontColor=#5C5C5C;labelBackgroundColor=none;labelBorderColor=none;strokeColor=#006658;fontSize=13;" parent="1" edge="1">
                    <mxGeometry relative="1" as="geometry">
                        <mxPoint x="260" y="285" as="sourcePoint"/>
                        <Array as="points">
                            <mxPoint x="260" y="285"/>
                            <mxPoint x="260" y="285"/>
                        </Array>
                        <mxPoint x="160" y="285" as="targetPoint"/>
                    </mxGeometry>
                </mxCell>
                <mxCell id="11" value="View" style="swimlane;fontFamily=Helvetica;fontColor=#5C5C5C;labelBackgroundColor=none;labelBorderColor=none;strokeColor=#006658;fillColor=#21C0A5;container=0;fontSize=13;startSize=20;" parent="1" vertex="1">
                    <mxGeometry x="280" y="120" width="150" height="300" as="geometry"/>
                </mxCell>
                <mxCell id="12" value="Main" style="whiteSpace=wrap;html=1;fontFamily=Helvetica;fontColor=#5C5C5C;labelBackgroundColor=none;labelBorderColor=none;strokeColor=#006658;fillColor=#21C0A5;fontSize=13;" parent="11" vertex="1">
                    <mxGeometry y="20" width="150" height="39.99999999999999" as="geometry"/>
                </mxCell>
                <mxCell id="30" value="Sign In / Sign Up" style="whiteSpace=wrap;html=1;fontFamily=Helvetica;fontColor=#5C5C5C;labelBackgroundColor=none;labelBorderColor=none;strokeColor=#006658;fillColor=#21C0A5;fontSize=13;" parent="11" vertex="1">
                    <mxGeometry y="59.999999999999986" width="150" height="39.999999999999986" as="geometry"/>
                </mxCell>
                <mxCell id="31" value="Song" style="whiteSpace=wrap;html=1;fontFamily=Helvetica;fontColor=#5C5C5C;labelBackgroundColor=none;labelBorderColor=none;strokeColor=#006658;fillColor=#21C0A5;fontSize=13;" parent="11" vertex="1">
                    <mxGeometry y="99.99999999999997" width="150" height="39.999999999999986" as="geometry"/>
                </mxCell>
                <mxCell id="32" value="CreateSong" style="whiteSpace=wrap;html=1;fontFamily=Helvetica;fontColor=#5C5C5C;labelBackgroundColor=none;labelBorderColor=none;strokeColor=#006658;fillColor=#21C0A5;fontSize=13;" parent="11" vertex="1">
                    <mxGeometry y="140" width="150" height="39.999999999999986" as="geometry"/>
                </mxCell>
                <mxCell id="33" value="Cover" style="whiteSpace=wrap;html=1;fontFamily=Helvetica;fontColor=#5C5C5C;labelBackgroundColor=none;labelBorderColor=none;strokeColor=#006658;fillColor=#21C0A5;fontSize=13;" parent="11" vertex="1">
                    <mxGeometry y="179.99999999999994" width="150" height="39.999999999999986" as="geometry"/>
                </mxCell>
                <mxCell id="34" value="CreateCover" style="whiteSpace=wrap;html=1;fontFamily=Helvetica;fontColor=#5C5C5C;labelBackgroundColor=none;labelBorderColor=none;strokeColor=#006658;fillColor=#21C0A5;fontSize=13;" parent="11" vertex="1">
                    <mxGeometry y="220" width="150" height="39.999999999999986" as="geometry"/>
                </mxCell>
                <mxCell id="35" value="Profile" style="whiteSpace=wrap;html=1;fontFamily=Helvetica;fontColor=#5C5C5C;labelBackgroundColor=none;labelBorderColor=none;strokeColor=#006658;fillColor=#21C0A5;fontSize=13;" parent="11" vertex="1">
                    <mxGeometry y="260" width="150" height="39.999999999999986" as="geometry"/>
                </mxCell>
                <mxCell id="23" value="Controller" style="rounded=0;whiteSpace=wrap;html=1;fontFamily=Helvetica;fontColor=#5C5C5C;labelBackgroundColor=none;labelBorderColor=none;strokeColor=#006658;fillColor=#21C0A5;fontSize=13;" parent="1" vertex="1">
                    <mxGeometry x="450" y="210" width="100" height="30" as="geometry"/>
                </mxCell>
                <mxCell id="24" style="edgeStyle=orthogonalEdgeStyle;rounded=0;orthogonalLoop=1;jettySize=auto;html=1;exitX=1;exitY=0.25;exitDx=0;exitDy=0;fontFamily=Helvetica;fontColor=#5C5C5C;labelBackgroundColor=none;labelBorderColor=none;strokeColor=#006658;fontSize=13;" parent="1" edge="1">
                    <mxGeometry relative="1" as="geometry">
                        <mxPoint x="550" y="265" as="targetPoint"/>
                        <mxPoint x="444" y="264.66" as="sourcePoint"/>
                        <Array as="points">
                            <mxPoint x="530" y="265"/>
                            <mxPoint x="530" y="265"/>
                        </Array>
                    </mxGeometry>
                </mxCell>
                <mxCell id="25" style="edgeStyle=orthogonalEdgeStyle;rounded=0;orthogonalLoop=1;jettySize=auto;html=1;entryX=1;entryY=0.75;entryDx=0;entryDy=0;fontFamily=Helvetica;fontColor=#5C5C5C;labelBackgroundColor=none;labelBorderColor=none;strokeColor=#006658;fontSize=13;" parent="1" edge="1">
                    <mxGeometry relative="1" as="geometry">
                        <mxPoint x="550" y="285" as="sourcePoint"/>
                        <Array as="points">
                            <mxPoint x="544" y="284.66"/>
                            <mxPoint x="544" y="284.66"/>
                        </Array>
                        <mxPoint x="444" y="284.66" as="targetPoint"/>
                    </mxGeometry>
                </mxCell>
                <mxCell id="26" value="Model" style="swimlane;fontFamily=Helvetica;fontColor=#5C5C5C;labelBackgroundColor=none;labelBorderColor=none;strokeColor=#006658;fillColor=#21C0A5;expand=1;container=0;fontSize=13;" parent="1" vertex="1">
                    <mxGeometry x="570" y="120" width="140" height="260" as="geometry"/>
                </mxCell>
                <mxCell id="36" value="Client" style="shape=umlActor;verticalLabelPosition=bottom;verticalAlign=top;html=1;outlineConnect=0;fontFamily=Helvetica;fontColor=#5C5C5C;labelBackgroundColor=none;labelBorderColor=none;strokeColor=#006658;fillColor=#21C0A5;fontSize=13;" parent="1" vertex="1">
                    <mxGeometry x="110" y="240" width="30" height="60" as="geometry"/>
                </mxCell>
                <mxCell id="125" value="User" style="shape=table;startSize=30;container=1;collapsible=0;childLayout=tableLayout;fixedRows=1;rowLines=0;fontStyle=1;align=center;fontFamily=Helvetica;fontSize=13;fontColor=#5C5C5C;labelBackgroundColor=none;labelBorderColor=none;strokeColor=#006658;fillColor=#21C0A5;resizeHeight=0;movable=1;resizable=1;" parent="1" vertex="1">
                    <mxGeometry x="1431" y="60" width="209" height="240" as="geometry"/>
                </mxCell>
                <mxCell id="126" value="" style="shape=partialRectangle;html=1;whiteSpace=wrap;collapsible=0;dropTarget=0;pointerEvents=0;fillColor=none;top=0;left=0;bottom=1;right=0;points=[[0,0.5],[1,0.5]];portConstraint=eastwest;fontFamily=Helvetica;fontColor=#5C5C5C;labelBackgroundColor=none;labelBorderColor=none;strokeColor=#006658;fontSize=13;" parent="125" vertex="1">
                    <mxGeometry y="30" width="209" height="30" as="geometry"/>
                </mxCell>
                <mxCell id="127" value="ID" style="shape=partialRectangle;html=1;whiteSpace=wrap;connectable=0;fillColor=none;top=0;left=0;bottom=0;right=0;overflow=hidden;fontFamily=Helvetica;fontColor=#5C5C5C;labelBackgroundColor=none;labelBorderColor=none;strokeColor=#006658;fontSize=13;" parent="126" vertex="1">
                    <mxGeometry width="93" height="30" as="geometry"/>
                </mxCell>
                <mxCell id="128" value="int - PK" style="shape=partialRectangle;html=1;whiteSpace=wrap;connectable=0;fillColor=none;top=0;left=0;bottom=0;right=0;align=left;spacingLeft=6;overflow=hidden;fontFamily=Helvetica;fontColor=#5C5C5C;labelBackgroundColor=none;labelBorderColor=none;strokeColor=#006658;fontSize=13;" parent="126" vertex="1">
                    <mxGeometry x="93" width="116" height="30" as="geometry"/>
                </mxCell>
                <mxCell id="129" value="" style="shape=partialRectangle;html=1;whiteSpace=wrap;collapsible=0;dropTarget=0;pointerEvents=0;fillColor=none;top=0;left=0;bottom=0;right=0;points=[[0,0.5],[1,0.5]];portConstraint=eastwest;fontFamily=Helvetica;fontColor=#5C5C5C;labelBackgroundColor=none;labelBorderColor=none;resizeHeight=0;fontSize=13;strokeColor=#006658;" parent="125" vertex="1">
                    <mxGeometry y="60" width="209" height="30" as="geometry"/>
                </mxCell>
                <mxCell id="130" value="Username" style="shape=partialRectangle;html=1;whiteSpace=wrap;connectable=0;fillColor=none;top=0;left=0;bottom=0;right=0;overflow=hidden;fontFamily=Helvetica;fontColor=#5C5C5C;labelBackgroundColor=none;labelBorderColor=none;resizeHeight=0;fontSize=13;strokeColor=#006658;" parent="129" vertex="1">
                    <mxGeometry width="93" height="30" as="geometry"/>
                </mxCell>
                <mxCell id="131" value="CharField(30)" style="shape=partialRectangle;html=1;whiteSpace=wrap;connectable=0;fillColor=none;top=0;left=0;bottom=0;right=0;align=left;spacingLeft=6;overflow=hidden;fontFamily=Helvetica;fontColor=#5C5C5C;labelBackgroundColor=none;labelBorderColor=none;fontSize=13;strokeColor=#006658;" parent="129" vertex="1">
                    <mxGeometry x="93" width="116" height="30" as="geometry"/>
                </mxCell>
                <mxCell id="132" value="" style="shape=partialRectangle;html=1;whiteSpace=wrap;collapsible=0;dropTarget=0;pointerEvents=0;fillColor=none;top=0;left=0;bottom=0;right=0;points=[[0,0.5],[1,0.5]];portConstraint=eastwest;fontFamily=Helvetica;fontColor=#5C5C5C;labelBackgroundColor=none;labelBorderColor=none;fontSize=13;strokeColor=#006658;" parent="125" vertex="1">
                    <mxGeometry y="90" width="209" height="30" as="geometry"/>
                </mxCell>
                <mxCell id="133" value="Email" style="shape=partialRectangle;html=1;whiteSpace=wrap;connectable=0;fillColor=none;top=0;left=0;bottom=0;right=0;overflow=hidden;fontFamily=Helvetica;fontColor=#5C5C5C;labelBackgroundColor=none;labelBorderColor=none;fontSize=13;strokeColor=#006658;" parent="132" vertex="1">
                    <mxGeometry width="93" height="30" as="geometry"/>
                </mxCell>
                <mxCell id="134" value="CharField(30)" style="shape=partialRectangle;html=1;whiteSpace=wrap;connectable=0;fillColor=none;top=0;left=0;bottom=0;right=0;align=left;spacingLeft=6;overflow=hidden;fontFamily=Helvetica;fontColor=#5C5C5C;labelBackgroundColor=none;labelBorderColor=none;fontSize=13;strokeColor=#006658;" parent="132" vertex="1">
                    <mxGeometry x="93" width="116" height="30" as="geometry"/>
                </mxCell>
                <mxCell id="138" value="" style="shape=partialRectangle;html=1;whiteSpace=wrap;collapsible=0;dropTarget=0;pointerEvents=0;fillColor=none;top=0;left=0;bottom=0;right=0;points=[[0,0.5],[1,0.5]];portConstraint=eastwest;fontFamily=Helvetica;fontColor=#5C5C5C;labelBackgroundColor=none;labelBorderColor=none;fontSize=13;strokeColor=#006658;" parent="125" vertex="1">
                    <mxGeometry y="120" width="209" height="30" as="geometry"/>
                </mxCell>
                <mxCell id="139" value="Password" style="shape=partialRectangle;html=1;whiteSpace=wrap;connectable=0;fillColor=none;top=0;left=0;bottom=0;right=0;overflow=hidden;fontFamily=Helvetica;fontColor=#5C5C5C;labelBackgroundColor=none;labelBorderColor=none;fontSize=13;strokeColor=#006658;" parent="138" vertex="1">
                    <mxGeometry width="93" height="30" as="geometry"/>
                </mxCell>
                <mxCell id="140" value="CharField(30)" style="shape=partialRectangle;html=1;whiteSpace=wrap;connectable=0;fillColor=none;top=0;left=0;bottom=0;right=0;align=left;spacingLeft=6;overflow=hidden;fontFamily=Helvetica;fontColor=#5C5C5C;labelBackgroundColor=none;labelBorderColor=none;fontSize=13;strokeColor=#006658;" parent="138" vertex="1">
                    <mxGeometry x="93" width="116" height="30" as="geometry"/>
                </mxCell>
                <mxCell id="265" value="" style="shape=partialRectangle;html=1;whiteSpace=wrap;collapsible=0;dropTarget=0;pointerEvents=0;fillColor=none;top=0;left=0;bottom=0;right=0;points=[[0,0.5],[1,0.5]];portConstraint=eastwest;fontFamily=Helvetica;fontColor=#5C5C5C;labelBackgroundColor=none;labelBorderColor=none;fontSize=13;strokeColor=#006658;" parent="125" vertex="1">
                    <mxGeometry y="150" width="209" height="30" as="geometry"/>
                </mxCell>
                <mxCell id="266" value="Description" style="shape=partialRectangle;html=1;whiteSpace=wrap;connectable=0;fillColor=none;top=0;left=0;bottom=0;right=0;overflow=hidden;fontFamily=Helvetica;fontColor=#5C5C5C;labelBackgroundColor=none;labelBorderColor=none;fontSize=13;strokeColor=#006658;" parent="265" vertex="1">
                    <mxGeometry width="93" height="30" as="geometry"/>
                </mxCell>
                <mxCell id="267" value="TextField" style="shape=partialRectangle;html=1;whiteSpace=wrap;connectable=0;fillColor=none;top=0;left=0;bottom=0;right=0;align=left;spacingLeft=6;overflow=hidden;fontFamily=Helvetica;fontColor=#5C5C5C;labelBackgroundColor=none;labelBorderColor=none;fontSize=13;strokeColor=#006658;" parent="265" vertex="1">
                    <mxGeometry x="93" width="116" height="30" as="geometry"/>
                </mxCell>
                <mxCell id="224" value="" style="shape=partialRectangle;html=1;whiteSpace=wrap;collapsible=0;dropTarget=0;pointerEvents=0;fillColor=none;top=0;left=0;bottom=0;right=0;points=[[0,0.5],[1,0.5]];portConstraint=eastwest;fontFamily=Helvetica;fontColor=#5C5C5C;labelBackgroundColor=none;labelBorderColor=none;fontSize=13;strokeColor=#006658;" parent="125" vertex="1">
                    <mxGeometry y="180" width="209" height="30" as="geometry"/>
                </mxCell>
                <mxCell id="225" value="Photo" style="shape=partialRectangle;html=1;whiteSpace=wrap;connectable=0;fillColor=none;top=0;left=0;bottom=0;right=0;overflow=hidden;fontFamily=Helvetica;fontColor=#5C5C5C;labelBackgroundColor=none;labelBorderColor=none;fontSize=13;strokeColor=#006658;" parent="224" vertex="1">
                    <mxGeometry width="93" height="30" as="geometry"/>
                </mxCell>
                <mxCell id="226" value="ImageField" style="shape=partialRectangle;html=1;whiteSpace=wrap;connectable=0;fillColor=none;top=0;left=0;bottom=0;right=0;align=left;spacingLeft=6;overflow=hidden;fontFamily=Helvetica;fontColor=#5C5C5C;labelBackgroundColor=none;labelBorderColor=none;fontSize=13;strokeColor=#006658;" parent="224" vertex="1">
                    <mxGeometry x="93" width="116" height="30" as="geometry"/>
                </mxCell>
                <mxCell id="320" value="" style="shape=partialRectangle;html=1;whiteSpace=wrap;collapsible=0;dropTarget=0;pointerEvents=0;fillColor=none;top=0;left=0;bottom=0;right=0;points=[[0,0.5],[1,0.5]];portConstraint=eastwest;fontFamily=Helvetica;fontColor=#5C5C5C;labelBackgroundColor=none;labelBorderColor=none;fontSize=13;strokeColor=#006658;" parent="125" vertex="1">
                    <mxGeometry y="210" width="209" height="30" as="geometry"/>
                </mxCell>
                <mxCell id="321" value="following" style="shape=partialRectangle;html=1;whiteSpace=wrap;connectable=0;fillColor=none;top=0;left=0;bottom=0;right=0;overflow=hidden;fontFamily=Helvetica;fontColor=#5C5C5C;labelBackgroundColor=none;labelBorderColor=none;fontSize=13;strokeColor=#006658;" parent="320" vertex="1">
                    <mxGeometry width="93" height="30" as="geometry"/>
                </mxCell>
                <mxCell id="322" value="ManyToManyField" style="shape=partialRectangle;html=1;whiteSpace=wrap;connectable=0;fillColor=none;top=0;left=0;bottom=0;right=0;align=left;spacingLeft=6;overflow=hidden;fontFamily=Helvetica;fontColor=#5C5C5C;labelBackgroundColor=none;labelBorderColor=none;fontSize=13;strokeColor=#006658;" parent="320" vertex="1">
                    <mxGeometry x="93" width="116" height="30" as="geometry"/>
                </mxCell>
                <mxCell id="149" value="" style="endArrow=none;html=1;fontFamily=Helvetica;fontSize=13;exitX=0.085;exitY=1.038;exitDx=0;exitDy=0;fontColor=#5C5C5C;labelBackgroundColor=none;labelBorderColor=none;strokeColor=#006658;endFill=0;entryX=0.851;entryY=-0.019;entryDx=0;entryDy=0;exitPerimeter=0;entryPerimeter=0;" parent="1" source="320" target="167" edge="1">
                    <mxGeometry relative="1" as="geometry">
                        <mxPoint x="1680" y="210" as="sourcePoint"/>
                        <mxPoint x="1800" y="180" as="targetPoint"/>
                    </mxGeometry>
                </mxCell>
                <mxCell id="150" value="User&lt;br style=&quot;font-size: 13px&quot;&gt;can play Instruments" style="edgeLabel;resizable=0;html=1;align=center;verticalAlign=middle;fontFamily=Helvetica;fontColor=#5C5C5C;labelBorderColor=none;fontSize=13;labelBackgroundColor=none;" parent="149" connectable="0" vertex="1">
                    <mxGeometry relative="1" as="geometry">
                        <mxPoint x="-2" as="offset"/>
                    </mxGeometry>
                </mxCell>
                <mxCell id="151" value="0..*" style="edgeLabel;resizable=0;html=1;align=left;verticalAlign=bottom;fontFamily=Helvetica;fontColor=#5C5C5C;labelBackgroundColor=none;labelBorderColor=none;fontSize=13;" parent="149" connectable="0" vertex="1">
                    <mxGeometry x="-1" relative="1" as="geometry">
                        <mxPoint x="-19" y="29" as="offset"/>
                    </mxGeometry>
                </mxCell>
                <mxCell id="152" value="0..*" style="edgeLabel;resizable=0;html=1;align=right;verticalAlign=bottom;fontFamily=Helvetica;fontColor=#5C5C5C;labelBackgroundColor=none;labelBorderColor=none;fontSize=13;" parent="149" connectable="0" vertex="1">
                    <mxGeometry x="1" relative="1" as="geometry">
                        <mxPoint x="-10" as="offset"/>
                    </mxGeometry>
                </mxCell>
                <mxCell id="167" value="Instrument" style="shape=table;startSize=30;container=1;collapsible=0;childLayout=tableLayout;fixedRows=1;rowLines=0;fontStyle=1;align=center;fontFamily=Helvetica;fontSize=13;fontColor=#5C5C5C;labelBackgroundColor=none;labelBorderColor=none;strokeColor=#006658;fillColor=#21C0A5;" parent="1" vertex="1">
                    <mxGeometry x="1070" y="400" width="200" height="90" as="geometry"/>
                </mxCell>
                <mxCell id="168" value="" style="shape=partialRectangle;html=1;whiteSpace=wrap;collapsible=0;dropTarget=0;pointerEvents=0;fillColor=none;top=0;left=0;bottom=1;right=0;points=[[0,0.5],[1,0.5]];portConstraint=eastwest;fontFamily=Helvetica;fontColor=#5C5C5C;labelBackgroundColor=none;labelBorderColor=none;strokeColor=#006658;fontSize=13;" parent="167" vertex="1">
                    <mxGeometry y="30" width="200" height="30" as="geometry"/>
                </mxCell>
                <mxCell id="169" value="ID" style="shape=partialRectangle;html=1;whiteSpace=wrap;connectable=0;fillColor=none;top=0;left=0;bottom=0;right=0;overflow=hidden;fontFamily=Helvetica;fontColor=#5C5C5C;labelBackgroundColor=none;labelBorderColor=none;fontSize=13;strokeColor=#006658;" parent="168" vertex="1">
                    <mxGeometry width="89" height="30" as="geometry"/>
                </mxCell>
                <mxCell id="170" value="int - PK" style="shape=partialRectangle;html=1;whiteSpace=wrap;connectable=0;fillColor=none;top=0;left=0;bottom=0;right=0;align=left;spacingLeft=6;overflow=hidden;fontFamily=Helvetica;fontColor=#5C5C5C;labelBackgroundColor=none;labelBorderColor=none;fontSize=13;strokeColor=#006658;" parent="168" vertex="1">
                    <mxGeometry x="89" width="111" height="30" as="geometry"/>
                </mxCell>
                <mxCell id="171" value="" style="shape=partialRectangle;html=1;whiteSpace=wrap;collapsible=0;dropTarget=0;pointerEvents=0;fillColor=none;top=0;left=0;bottom=0;right=0;points=[[0,0.5],[1,0.5]];portConstraint=eastwest;fontFamily=Helvetica;fontColor=#5C5C5C;labelBackgroundColor=none;labelBorderColor=none;fontSize=13;strokeColor=#006658;" parent="167" vertex="1">
                    <mxGeometry y="60" width="200" height="30" as="geometry"/>
                </mxCell>
                <mxCell id="172" value="Name" style="shape=partialRectangle;html=1;whiteSpace=wrap;connectable=0;fillColor=none;top=0;left=0;bottom=0;right=0;overflow=hidden;fontFamily=Helvetica;fontColor=#5C5C5C;labelBackgroundColor=none;labelBorderColor=none;fontSize=13;strokeColor=#006658;" parent="171" vertex="1">
                    <mxGeometry width="89" height="30" as="geometry"/>
                </mxCell>
                <mxCell id="173" value="CharField(30)" style="shape=partialRectangle;html=1;whiteSpace=wrap;connectable=0;fillColor=none;top=0;left=0;bottom=0;right=0;align=left;spacingLeft=6;overflow=hidden;fontFamily=Helvetica;fontColor=#5C5C5C;labelBackgroundColor=none;labelBorderColor=none;fontSize=13;strokeColor=#006658;" parent="171" vertex="1">
                    <mxGeometry x="89" width="111" height="30" as="geometry"/>
                </mxCell>
                <mxCell id="174" value="Cover" style="shape=table;startSize=30;container=1;collapsible=0;childLayout=tableLayout;fixedRows=1;rowLines=0;fontStyle=1;align=center;fontFamily=Helvetica;fontSize=13;fontColor=#5C5C5C;labelBackgroundColor=none;labelBorderColor=none;strokeColor=#006658;fillColor=#21C0A5;" parent="1" vertex="1">
                    <mxGeometry x="1431" y="400" width="200" height="300" as="geometry"/>
                </mxCell>
                <mxCell id="175" value="" style="shape=partialRectangle;html=1;whiteSpace=wrap;collapsible=0;dropTarget=0;pointerEvents=0;fillColor=none;top=0;left=0;bottom=1;right=0;points=[[0,0.5],[1,0.5]];portConstraint=eastwest;fontFamily=Helvetica;fontColor=#5C5C5C;labelBackgroundColor=none;labelBorderColor=none;strokeColor=#006658;fontSize=13;" parent="174" vertex="1">
                    <mxGeometry y="30" width="200" height="30" as="geometry"/>
                </mxCell>
                <mxCell id="176" value="ID" style="shape=partialRectangle;html=1;whiteSpace=wrap;connectable=0;fillColor=none;top=0;left=0;bottom=0;right=0;overflow=hidden;fontFamily=Helvetica;fontColor=#5C5C5C;labelBackgroundColor=none;labelBorderColor=none;strokeColor=#006658;fontSize=13;" parent="175" vertex="1">
                    <mxGeometry width="89" height="30" as="geometry"/>
                </mxCell>
                <mxCell id="177" value="int - PK" style="shape=partialRectangle;html=1;whiteSpace=wrap;connectable=0;fillColor=none;top=0;left=0;bottom=0;right=0;align=left;spacingLeft=6;overflow=hidden;fontFamily=Helvetica;fontColor=#5C5C5C;labelBackgroundColor=none;labelBorderColor=none;strokeColor=#006658;fontSize=13;" parent="175" vertex="1">
                    <mxGeometry x="89" width="111" height="30" as="geometry"/>
                </mxCell>
                <mxCell id="259" value="" style="shape=partialRectangle;html=1;whiteSpace=wrap;collapsible=0;dropTarget=0;pointerEvents=0;fillColor=none;top=0;left=0;bottom=0;right=0;points=[[0,0.5],[1,0.5]];portConstraint=eastwest;fontFamily=Helvetica;fontColor=#5C5C5C;labelBackgroundColor=none;labelBorderColor=none;fontSize=13;strokeColor=#006658;" parent="174" vertex="1">
                    <mxGeometry y="60" width="200" height="30" as="geometry"/>
                </mxCell>
                <mxCell id="260" value="Audio" style="shape=partialRectangle;html=1;whiteSpace=wrap;connectable=0;fillColor=none;top=0;left=0;bottom=0;right=0;overflow=hidden;fontFamily=Helvetica;fontColor=#5C5C5C;labelBackgroundColor=none;labelBorderColor=none;fontSize=13;strokeColor=#006658;" parent="259" vertex="1">
                    <mxGeometry width="89" height="30" as="geometry"/>
                </mxCell>
                <mxCell id="261" value="FileField" style="shape=partialRectangle;html=1;whiteSpace=wrap;connectable=0;fillColor=none;top=0;left=0;bottom=0;right=0;align=left;spacingLeft=6;overflow=hidden;fontFamily=Helvetica;fontColor=#5C5C5C;labelBackgroundColor=none;labelBorderColor=none;fontSize=13;strokeColor=#006658;" parent="259" vertex="1">
                    <mxGeometry x="89" width="111" height="30" as="geometry"/>
                </mxCell>
                <mxCell id="178" value="" style="shape=partialRectangle;html=1;whiteSpace=wrap;collapsible=0;dropTarget=0;pointerEvents=0;fillColor=none;top=0;left=0;bottom=0;right=0;points=[[0,0.5],[1,0.5]];portConstraint=eastwest;fontFamily=Helvetica;fontColor=#5C5C5C;labelBackgroundColor=none;labelBorderColor=none;fontSize=13;strokeColor=#006658;" parent="174" vertex="1">
                    <mxGeometry y="90" width="200" height="30" as="geometry"/>
                </mxCell>
                <mxCell id="179" value="Title" style="shape=partialRectangle;html=1;whiteSpace=wrap;connectable=0;fillColor=none;top=0;left=0;bottom=0;right=0;overflow=hidden;fontFamily=Helvetica;fontColor=#5C5C5C;labelBackgroundColor=none;labelBorderColor=none;fontSize=13;strokeColor=#006658;" parent="178" vertex="1">
                    <mxGeometry width="89" height="30" as="geometry"/>
                </mxCell>
                <mxCell id="180" value="CharField(50)" style="shape=partialRectangle;html=1;whiteSpace=wrap;connectable=0;fillColor=none;top=0;left=0;bottom=0;right=0;align=left;spacingLeft=6;overflow=hidden;fontFamily=Helvetica;fontColor=#5C5C5C;labelBackgroundColor=none;labelBorderColor=none;fontSize=13;strokeColor=#006658;" parent="178" vertex="1">
                    <mxGeometry x="89" width="111" height="30" as="geometry"/>
                </mxCell>
                <mxCell id="181" value="" style="shape=partialRectangle;html=1;whiteSpace=wrap;collapsible=0;dropTarget=0;pointerEvents=0;fillColor=none;top=0;left=0;bottom=0;right=0;points=[[0,0.5],[1,0.5]];portConstraint=eastwest;fontFamily=Helvetica;fontColor=#5C5C5C;labelBackgroundColor=none;labelBorderColor=none;fontSize=13;strokeColor=#006658;" parent="174" vertex="1">
                    <mxGeometry y="120" width="200" height="30" as="geometry"/>
                </mxCell>
                <mxCell id="182" value="Category" style="shape=partialRectangle;html=1;whiteSpace=wrap;connectable=0;fillColor=none;top=0;left=0;bottom=0;right=0;overflow=hidden;fontFamily=Helvetica;fontColor=#5C5C5C;labelBackgroundColor=none;labelBorderColor=none;fontSize=13;strokeColor=#006658;" parent="181" vertex="1">
                    <mxGeometry width="89" height="30" as="geometry"/>
                </mxCell>
                <mxCell id="183" value="CharField(30)" style="shape=partialRectangle;html=1;whiteSpace=wrap;connectable=0;fillColor=none;top=0;left=0;bottom=0;right=0;align=left;spacingLeft=6;overflow=hidden;fontFamily=Helvetica;fontColor=#5C5C5C;labelBackgroundColor=none;labelBorderColor=none;fontSize=13;strokeColor=#006658;" parent="181" vertex="1">
                    <mxGeometry x="89" width="111" height="30" as="geometry"/>
                </mxCell>
                <mxCell id="184" value="" style="shape=partialRectangle;html=1;whiteSpace=wrap;collapsible=0;dropTarget=0;pointerEvents=0;fillColor=none;top=0;left=0;bottom=0;right=0;points=[[0,0.5],[1,0.5]];portConstraint=eastwest;fontFamily=Helvetica;fontColor=#5C5C5C;labelBackgroundColor=none;labelBorderColor=none;fontSize=13;strokeColor=#006658;" parent="174" vertex="1">
                    <mxGeometry y="150" width="200" height="30" as="geometry"/>
                </mxCell>
                <mxCell id="185" value="Description" style="shape=partialRectangle;html=1;whiteSpace=wrap;connectable=0;fillColor=none;top=0;left=0;bottom=0;right=0;overflow=hidden;fontFamily=Helvetica;fontColor=#5C5C5C;labelBackgroundColor=none;labelBorderColor=none;fontSize=13;strokeColor=#006658;" parent="184" vertex="1">
                    <mxGeometry width="89" height="30" as="geometry"/>
                </mxCell>
                <mxCell id="186" value="TextField" style="shape=partialRectangle;html=1;whiteSpace=wrap;connectable=0;fillColor=none;top=0;left=0;bottom=0;right=0;align=left;spacingLeft=6;overflow=hidden;fontFamily=Helvetica;fontColor=#5C5C5C;labelBackgroundColor=none;labelBorderColor=none;fontSize=13;strokeColor=#006658;" parent="184" vertex="1">
                    <mxGeometry x="89" width="111" height="30" as="geometry"/>
                </mxCell>
                <mxCell id="221" value="" style="shape=partialRectangle;html=1;whiteSpace=wrap;collapsible=0;dropTarget=0;pointerEvents=0;fillColor=none;top=0;left=0;bottom=0;right=0;points=[[0,0.5],[1,0.5]];portConstraint=eastwest;fontFamily=Helvetica;fontColor=#5C5C5C;labelBackgroundColor=none;labelBorderColor=none;fontSize=13;strokeColor=#006658;" parent="174" vertex="1">
                    <mxGeometry y="180" width="200" height="30" as="geometry"/>
                </mxCell>
                <mxCell id="222" value="Views" style="shape=partialRectangle;html=1;whiteSpace=wrap;connectable=0;fillColor=none;top=0;left=0;bottom=0;right=0;overflow=hidden;fontFamily=Helvetica;fontColor=#5C5C5C;labelBackgroundColor=none;labelBorderColor=none;fontSize=13;strokeColor=#006658;" parent="221" vertex="1">
                    <mxGeometry width="89" height="30" as="geometry"/>
                </mxCell>
                <mxCell id="223" value="int" style="shape=partialRectangle;html=1;whiteSpace=wrap;connectable=0;fillColor=none;top=0;left=0;bottom=0;right=0;align=left;spacingLeft=6;overflow=hidden;fontFamily=Helvetica;fontColor=#5C5C5C;labelBackgroundColor=none;labelBorderColor=none;fontSize=13;strokeColor=#006658;" parent="221" vertex="1">
                    <mxGeometry x="89" width="111" height="30" as="geometry"/>
                </mxCell>
                <mxCell id="192" value="" style="shape=partialRectangle;html=1;whiteSpace=wrap;collapsible=0;dropTarget=0;pointerEvents=0;fillColor=none;top=0;left=0;bottom=0;right=0;points=[[0,0.5],[1,0.5]];portConstraint=eastwest;fontFamily=Helvetica;fontColor=#5C5C5C;labelBackgroundColor=none;labelBorderColor=none;fontSize=13;strokeColor=#006658;" parent="174" vertex="1">
                    <mxGeometry y="210" width="200" height="30" as="geometry"/>
                </mxCell>
                <mxCell id="193" value="UserID" style="shape=partialRectangle;html=1;whiteSpace=wrap;connectable=0;fillColor=none;top=0;left=0;bottom=0;right=0;overflow=hidden;fontFamily=Helvetica;fontColor=#5C5C5C;labelBackgroundColor=none;labelBorderColor=none;fontSize=13;strokeColor=#006658;" parent="192" vertex="1">
                    <mxGeometry width="89" height="30" as="geometry"/>
                </mxCell>
                <mxCell id="194" value="int - FK" style="shape=partialRectangle;html=1;whiteSpace=wrap;connectable=0;fillColor=none;top=0;left=0;bottom=0;right=0;align=left;spacingLeft=6;overflow=hidden;fontFamily=Helvetica;fontColor=#5C5C5C;labelBackgroundColor=none;labelBorderColor=none;fontSize=13;strokeColor=#006658;" parent="192" vertex="1">
                    <mxGeometry x="89" width="111" height="30" as="geometry"/>
                </mxCell>
                <mxCell id="195" value="" style="shape=partialRectangle;html=1;whiteSpace=wrap;collapsible=0;dropTarget=0;pointerEvents=0;fillColor=none;top=0;left=0;bottom=0;right=0;points=[[0,0.5],[1,0.5]];portConstraint=eastwest;fontFamily=Helvetica;fontColor=#5C5C5C;labelBackgroundColor=none;labelBorderColor=none;fontSize=13;strokeColor=#006658;" parent="174" vertex="1">
                    <mxGeometry y="240" width="200" height="30" as="geometry"/>
                </mxCell>
                <mxCell id="196" value="InstrumentID" style="shape=partialRectangle;html=1;whiteSpace=wrap;connectable=0;fillColor=none;top=0;left=0;bottom=0;right=0;overflow=hidden;fontFamily=Helvetica;fontColor=#5C5C5C;labelBackgroundColor=none;labelBorderColor=none;fontSize=13;strokeColor=#006658;" parent="195" vertex="1">
                    <mxGeometry width="89" height="30" as="geometry"/>
                </mxCell>
                <mxCell id="197" value="int - FK" style="shape=partialRectangle;html=1;whiteSpace=wrap;connectable=0;fillColor=none;top=0;left=0;bottom=0;right=0;align=left;spacingLeft=6;overflow=hidden;fontFamily=Helvetica;fontColor=#5C5C5C;labelBackgroundColor=none;labelBorderColor=none;fontSize=13;strokeColor=#006658;" parent="195" vertex="1">
                    <mxGeometry x="89" width="111" height="30" as="geometry"/>
                </mxCell>
                <mxCell id="217" value="" style="shape=partialRectangle;html=1;whiteSpace=wrap;collapsible=0;dropTarget=0;pointerEvents=0;fillColor=none;top=0;left=0;bottom=0;right=0;points=[[0,0.5],[1,0.5]];portConstraint=eastwest;fontFamily=Helvetica;fontColor=#5C5C5C;labelBackgroundColor=none;labelBorderColor=none;fontSize=13;strokeColor=#006658;" parent="174" vertex="1">
                    <mxGeometry y="270" width="200" height="30" as="geometry"/>
                </mxCell>
                <mxCell id="218" value="SongID" style="shape=partialRectangle;html=1;whiteSpace=wrap;connectable=0;fillColor=none;top=0;left=0;bottom=0;right=0;overflow=hidden;fontFamily=Helvetica;fontColor=#5C5C5C;labelBackgroundColor=none;labelBorderColor=none;fontSize=13;strokeColor=#006658;" parent="217" vertex="1">
                    <mxGeometry width="89" height="30" as="geometry"/>
                </mxCell>
                <mxCell id="219" value="int - FK" style="shape=partialRectangle;html=1;whiteSpace=wrap;connectable=0;fillColor=none;top=0;left=0;bottom=0;right=0;align=left;spacingLeft=6;overflow=hidden;fontFamily=Helvetica;fontColor=#5C5C5C;labelBackgroundColor=none;labelBorderColor=none;fontSize=13;strokeColor=#006658;" parent="217" vertex="1">
                    <mxGeometry x="89" width="111" height="30" as="geometry"/>
                </mxCell>
                <mxCell id="188" value="" style="endArrow=none;html=1;fontFamily=Helvetica;fontSize=13;entryX=0.5;entryY=0;entryDx=0;entryDy=0;fontColor=#5C5C5C;labelBackgroundColor=none;labelBorderColor=none;strokeColor=#006658;endFill=0;" parent="1" target="174" edge="1">
                    <mxGeometry relative="1" as="geometry">
                        <mxPoint x="1531" y="301" as="sourcePoint"/>
                        <mxPoint x="1754.5" y="339.58000000000004" as="targetPoint"/>
                    </mxGeometry>
                </mxCell>
                <mxCell id="189" value="User&lt;br style=&quot;font-size: 13px;&quot;&gt;Makes Covers" style="edgeLabel;resizable=0;html=1;align=center;verticalAlign=middle;fontFamily=Helvetica;fontColor=#5C5C5C;labelBorderColor=none;fontSize=13;labelBackgroundColor=none;" parent="188" connectable="0" vertex="1">
                    <mxGeometry relative="1" as="geometry">
                        <mxPoint x="-2" as="offset"/>
                    </mxGeometry>
                </mxCell>
                <mxCell id="190" value="0..*" style="edgeLabel;resizable=0;html=1;align=left;verticalAlign=bottom;fontFamily=Helvetica;fontColor=#5C5C5C;labelBackgroundColor=none;labelBorderColor=none;fontSize=13;" parent="188" connectable="0" vertex="1">
                    <mxGeometry x="-1" relative="1" as="geometry">
                        <mxPoint x="-31" y="20" as="offset"/>
                    </mxGeometry>
                </mxCell>
                <mxCell id="191" value="1..1" style="edgeLabel;resizable=0;html=1;align=right;verticalAlign=bottom;fontFamily=Helvetica;fontColor=#5C5C5C;labelBackgroundColor=none;labelBorderColor=none;fontSize=13;" parent="188" connectable="0" vertex="1">
                    <mxGeometry x="1" relative="1" as="geometry">
                        <mxPoint x="-10" as="offset"/>
                    </mxGeometry>
                </mxCell>
                <mxCell id="198" value="" style="endArrow=none;html=1;fontFamily=Helvetica;fontSize=13;fontColor=#5C5C5C;labelBackgroundColor=none;labelBorderColor=none;strokeColor=#006658;endFill=0;exitX=0;exitY=0.5;exitDx=0;exitDy=0;entryX=1;entryY=0.5;entryDx=0;entryDy=0;" parent="1" source="259" target="171" edge="1">
                    <mxGeometry relative="1" as="geometry">
                        <mxPoint x="1749.9999999999998" y="250" as="sourcePoint"/>
                        <mxPoint x="1860" y="220" as="targetPoint"/>
                    </mxGeometry>
                </mxCell>
                <mxCell id="199" value="Cover&lt;br style=&quot;font-size: 13px&quot;&gt;done by Instrument" style="edgeLabel;resizable=0;html=1;align=center;verticalAlign=middle;fontFamily=Helvetica;fontColor=#5C5C5C;labelBorderColor=none;fontSize=13;labelBackgroundColor=none;" parent="198" connectable="0" vertex="1">
                    <mxGeometry relative="1" as="geometry">
                        <mxPoint x="-1" y="-1" as="offset"/>
                    </mxGeometry>
                </mxCell>
                <mxCell id="200" value="1..1" style="edgeLabel;resizable=0;html=1;align=left;verticalAlign=bottom;fontFamily=Helvetica;fontColor=#5C5C5C;labelBackgroundColor=none;labelBorderColor=none;fontSize=13;" parent="198" connectable="0" vertex="1">
                    <mxGeometry x="-1" relative="1" as="geometry">
                        <mxPoint x="-31" y="-5" as="offset"/>
                    </mxGeometry>
                </mxCell>
                <mxCell id="201" value="0..*" style="edgeLabel;resizable=0;html=1;align=right;verticalAlign=bottom;fontFamily=Helvetica;fontColor=#5C5C5C;labelBackgroundColor=none;labelBorderColor=none;fontSize=13;" parent="198" connectable="0" vertex="1">
                    <mxGeometry x="1" relative="1" as="geometry">
                        <mxPoint x="30" y="-5" as="offset"/>
                    </mxGeometry>
                </mxCell>
                <mxCell id="202" value="Combination" style="shape=table;startSize=30;container=1;collapsible=0;childLayout=tableLayout;fixedRows=1;rowLines=0;fontStyle=1;align=center;fontFamily=Helvetica;fontSize=13;fontColor=#5C5C5C;labelBackgroundColor=none;labelBorderColor=none;strokeColor=#006658;fillColor=#21C0A5;" parent="1" vertex="1">
                    <mxGeometry x="1830" y="380" width="200" height="120" as="geometry"/>
                </mxCell>
                <mxCell id="203" value="" style="shape=partialRectangle;html=1;whiteSpace=wrap;collapsible=0;dropTarget=0;pointerEvents=0;fillColor=none;top=0;left=0;bottom=1;right=0;points=[[0,0.5],[1,0.5]];portConstraint=eastwest;fontFamily=Helvetica;fontColor=#5C5C5C;labelBackgroundColor=none;labelBorderColor=none;strokeColor=#006658;fontSize=13;" parent="202" vertex="1">
                    <mxGeometry y="30" width="200" height="30" as="geometry"/>
                </mxCell>
                <mxCell id="204" value="ID" style="shape=partialRectangle;html=1;whiteSpace=wrap;connectable=0;fillColor=none;top=0;left=0;bottom=0;right=0;overflow=hidden;fontFamily=Helvetica;fontColor=#5C5C5C;labelBackgroundColor=none;labelBorderColor=none;strokeColor=#006658;fontSize=13;" parent="203" vertex="1">
                    <mxGeometry width="89" height="30" as="geometry"/>
                </mxCell>
                <mxCell id="205" value="int - PK" style="shape=partialRectangle;html=1;whiteSpace=wrap;connectable=0;fillColor=none;top=0;left=0;bottom=0;right=0;align=left;spacingLeft=6;overflow=hidden;fontFamily=Helvetica;fontColor=#5C5C5C;labelBackgroundColor=none;labelBorderColor=none;strokeColor=#006658;fontSize=13;" parent="203" vertex="1">
                    <mxGeometry x="89" width="111" height="30" as="geometry"/>
                </mxCell>
                <mxCell id="206" value="" style="shape=partialRectangle;html=1;whiteSpace=wrap;collapsible=0;dropTarget=0;pointerEvents=0;fillColor=none;top=0;left=0;bottom=0;right=0;points=[[0,0.5],[1,0.5]];portConstraint=eastwest;fontFamily=Helvetica;fontColor=#5C5C5C;labelBackgroundColor=none;labelBorderColor=none;fontSize=13;strokeColor=#006658;" parent="202" vertex="1">
                    <mxGeometry y="60" width="200" height="30" as="geometry"/>
                </mxCell>
                <mxCell id="207" value="Views" style="shape=partialRectangle;html=1;whiteSpace=wrap;connectable=0;fillColor=none;top=0;left=0;bottom=0;right=0;overflow=hidden;fontFamily=Helvetica;fontColor=#5C5C5C;labelBackgroundColor=none;labelBorderColor=none;fontSize=13;strokeColor=#006658;" parent="206" vertex="1">
                    <mxGeometry width="89" height="30" as="geometry"/>
                </mxCell>
                <mxCell id="208" value="int" style="shape=partialRectangle;html=1;whiteSpace=wrap;connectable=0;fillColor=none;top=0;left=0;bottom=0;right=0;align=left;spacingLeft=6;overflow=hidden;fontFamily=Helvetica;fontColor=#5C5C5C;labelBackgroundColor=none;labelBorderColor=none;fontSize=13;strokeColor=#006658;" parent="206" vertex="1">
                    <mxGeometry x="89" width="111" height="30" as="geometry"/>
                </mxCell>
                <mxCell id="406" value="" style="shape=partialRectangle;html=1;whiteSpace=wrap;collapsible=0;dropTarget=0;pointerEvents=0;fillColor=none;top=0;left=0;bottom=0;right=0;points=[[0,0.5],[1,0.5]];portConstraint=eastwest;fontFamily=Helvetica;fontColor=#5C5C5C;labelBackgroundColor=none;labelBorderColor=none;fontSize=13;strokeColor=#006658;" parent="202" vertex="1">
                    <mxGeometry y="90" width="200" height="30" as="geometry"/>
                </mxCell>
                <mxCell id="407" value="SongID" style="shape=partialRectangle;html=1;whiteSpace=wrap;connectable=0;fillColor=none;top=0;left=0;bottom=0;right=0;overflow=hidden;fontFamily=Helvetica;fontColor=#5C5C5C;labelBackgroundColor=none;labelBorderColor=none;fontSize=13;strokeColor=#006658;" parent="406" vertex="1">
                    <mxGeometry width="89" height="30" as="geometry"/>
                </mxCell>
                <mxCell id="408" value="int - FK" style="shape=partialRectangle;html=1;whiteSpace=wrap;connectable=0;fillColor=none;top=0;left=0;bottom=0;right=0;align=left;spacingLeft=6;overflow=hidden;fontFamily=Helvetica;fontColor=#5C5C5C;labelBackgroundColor=none;labelBorderColor=none;fontSize=13;strokeColor=#006658;" parent="406" vertex="1">
                    <mxGeometry x="89" width="111" height="30" as="geometry"/>
                </mxCell>
                <mxCell id="227" value="" style="endArrow=none;html=1;fontFamily=Helvetica;fontSize=13;entryX=1;entryY=0.5;entryDx=0;entryDy=0;fontColor=#5C5C5C;labelBackgroundColor=none;labelBorderColor=none;strokeColor=#006658;endFill=0;exitX=0;exitY=0.5;exitDx=0;exitDy=0;" parent="1" source="206" target="175" edge="1">
                    <mxGeometry relative="1" as="geometry">
                        <mxPoint x="1720" y="380" as="sourcePoint"/>
                        <mxPoint x="1720" y="510" as="targetPoint"/>
                        <Array as="points"/>
                    </mxGeometry>
                </mxCell>
                <mxCell id="228" value="Combination&lt;br style=&quot;font-size: 13px&quot;&gt;contains Covers" style="edgeLabel;resizable=0;html=1;align=center;verticalAlign=middle;fontFamily=Helvetica;fontColor=#5C5C5C;labelBorderColor=none;fontSize=13;labelBackgroundColor=none;" parent="227" connectable="0" vertex="1">
                    <mxGeometry relative="1" as="geometry">
                        <mxPoint x="-2" as="offset"/>
                    </mxGeometry>
                </mxCell>
                <mxCell id="229" value="1..*" style="edgeLabel;resizable=0;html=1;align=left;verticalAlign=bottom;fontFamily=Helvetica;fontColor=#5C5C5C;labelBackgroundColor=none;labelBorderColor=none;fontSize=13;" parent="227" connectable="0" vertex="1">
                    <mxGeometry x="-1" relative="1" as="geometry">
                        <mxPoint x="-30" y="-5" as="offset"/>
                    </mxGeometry>
                </mxCell>
                <mxCell id="230" value="0..*" style="edgeLabel;resizable=0;html=1;align=right;verticalAlign=bottom;fontFamily=Helvetica;fontColor=#5C5C5C;labelBackgroundColor=none;labelBorderColor=none;fontSize=13;" parent="227" connectable="0" vertex="1">
                    <mxGeometry x="1" relative="1" as="geometry">
                        <mxPoint x="29" y="-5" as="offset"/>
                    </mxGeometry>
                </mxCell>
                <mxCell id="231" value="" style="endArrow=none;html=1;fontFamily=Helvetica;fontSize=13;fontColor=#5C5C5C;labelBackgroundColor=none;labelBorderColor=none;strokeColor=#006658;endFill=0;exitX=0;exitY=0.5;exitDx=0;exitDy=0;entryX=1.013;entryY=0.157;entryDx=0;entryDy=0;entryPerimeter=0;" parent="1" source="192" target="235" edge="1">
                    <mxGeometry relative="1" as="geometry">
                        <mxPoint x="1531" y="690" as="sourcePoint"/>
                        <mxPoint x="1270" y="590" as="targetPoint"/>
                    </mxGeometry>
                </mxCell>
                <mxCell id="232" value="Cover&lt;br style=&quot;font-size: 13px&quot;&gt;can have&lt;br style=&quot;font-size: 13px&quot;&gt;CoverTags" style="edgeLabel;resizable=0;html=1;align=center;verticalAlign=middle;fontFamily=Helvetica;fontColor=#5C5C5C;labelBorderColor=none;fontSize=13;labelBackgroundColor=none;" parent="231" connectable="0" vertex="1">
                    <mxGeometry relative="1" as="geometry">
                        <mxPoint x="-1" as="offset"/>
                    </mxGeometry>
                </mxCell>
                <mxCell id="233" value="0..*" style="edgeLabel;resizable=0;html=1;align=left;verticalAlign=bottom;fontFamily=Helvetica;fontColor=#5C5C5C;labelBackgroundColor=none;labelBorderColor=none;fontSize=13;" parent="231" connectable="0" vertex="1">
                    <mxGeometry x="-1" relative="1" as="geometry">
                        <mxPoint x="-23" y="-5" as="offset"/>
                    </mxGeometry>
                </mxCell>
                <mxCell id="234" value="1..*" style="edgeLabel;resizable=0;html=1;align=right;verticalAlign=bottom;fontFamily=Helvetica;fontColor=#5C5C5C;labelBackgroundColor=none;labelBorderColor=none;fontSize=13;" parent="231" connectable="0" vertex="1">
                    <mxGeometry x="1" relative="1" as="geometry">
                        <mxPoint x="18" y="-5" as="offset"/>
                    </mxGeometry>
                </mxCell>
                <mxCell id="235" value="CoverTag" style="shape=table;startSize=30;container=1;collapsible=0;childLayout=tableLayout;fixedRows=1;rowLines=0;fontStyle=1;align=center;fontFamily=Helvetica;fontSize=13;fontColor=#5C5C5C;labelBackgroundColor=none;labelBorderColor=none;strokeColor=#006658;fillColor=#21C0A5;" parent="1" vertex="1">
                    <mxGeometry x="1150" y="610" width="170" height="90" as="geometry"/>
                </mxCell>
                <mxCell id="236" value="" style="shape=partialRectangle;html=1;whiteSpace=wrap;collapsible=0;dropTarget=0;pointerEvents=0;fillColor=none;top=0;left=0;bottom=1;right=0;points=[[0,0.5],[1,0.5]];portConstraint=eastwest;fontFamily=Helvetica;fontColor=#5C5C5C;labelBackgroundColor=none;labelBorderColor=none;strokeColor=#006658;fontSize=13;" parent="235" vertex="1">
                    <mxGeometry y="30" width="170" height="30" as="geometry"/>
                </mxCell>
                <mxCell id="237" value="ID" style="shape=partialRectangle;html=1;whiteSpace=wrap;connectable=0;fillColor=none;top=0;left=0;bottom=0;right=0;overflow=hidden;fontFamily=Helvetica;fontColor=#5C5C5C;labelBackgroundColor=none;labelBorderColor=none;strokeColor=#006658;fontSize=13;" parent="236" vertex="1">
                    <mxGeometry width="76" height="30" as="geometry"/>
                </mxCell>
                <mxCell id="238" value="int - PK" style="shape=partialRectangle;html=1;whiteSpace=wrap;connectable=0;fillColor=none;top=0;left=0;bottom=0;right=0;align=left;spacingLeft=6;overflow=hidden;fontFamily=Helvetica;fontColor=#5C5C5C;labelBackgroundColor=none;labelBorderColor=none;strokeColor=#006658;fontSize=13;" parent="236" vertex="1">
                    <mxGeometry x="76" width="94" height="30" as="geometry"/>
                </mxCell>
                <mxCell id="239" value="" style="shape=partialRectangle;html=1;whiteSpace=wrap;collapsible=0;dropTarget=0;pointerEvents=0;fillColor=none;top=0;left=0;bottom=0;right=0;points=[[0,0.5],[1,0.5]];portConstraint=eastwest;fontFamily=Helvetica;fontColor=#5C5C5C;labelBackgroundColor=none;labelBorderColor=none;fontSize=13;strokeColor=#006658;" parent="235" vertex="1">
                    <mxGeometry y="60" width="170" height="30" as="geometry"/>
                </mxCell>
                <mxCell id="240" value="Name" style="shape=partialRectangle;html=1;whiteSpace=wrap;connectable=0;fillColor=none;top=0;left=0;bottom=0;right=0;overflow=hidden;fontFamily=Helvetica;fontColor=#5C5C5C;labelBackgroundColor=none;labelBorderColor=none;fontSize=13;strokeColor=#006658;" parent="239" vertex="1">
                    <mxGeometry width="76" height="30" as="geometry"/>
                </mxCell>
                <mxCell id="241" value="CharField(30)" style="shape=partialRectangle;html=1;whiteSpace=wrap;connectable=0;fillColor=none;top=0;left=0;bottom=0;right=0;align=left;spacingLeft=6;overflow=hidden;fontFamily=Helvetica;fontColor=#5C5C5C;labelBackgroundColor=none;labelBorderColor=none;fontSize=13;strokeColor=#006658;" parent="239" vertex="1">
                    <mxGeometry x="76" width="94" height="30" as="geometry"/>
                </mxCell>
                <mxCell id="245" value="Song" style="shape=table;startSize=30;container=1;collapsible=0;childLayout=tableLayout;fixedRows=1;rowLines=0;fontStyle=1;align=center;fontFamily=Helvetica;fontSize=13;fontColor=#5C5C5C;labelBackgroundColor=none;labelBorderColor=none;strokeColor=#006658;fillColor=#21C0A5;" parent="1" vertex="1">
                    <mxGeometry x="1830" y="600" width="200" height="210" as="geometry"/>
                </mxCell>
                <mxCell id="246" value="" style="shape=partialRectangle;html=1;whiteSpace=wrap;collapsible=0;dropTarget=0;pointerEvents=0;fillColor=none;top=0;left=0;bottom=1;right=0;points=[[0,0.5],[1,0.5]];portConstraint=eastwest;fontFamily=Helvetica;fontColor=#5C5C5C;labelBackgroundColor=none;labelBorderColor=none;strokeColor=#006658;fontSize=13;" parent="245" vertex="1">
                    <mxGeometry y="30" width="200" height="30" as="geometry"/>
                </mxCell>
                <mxCell id="247" value="ID" style="shape=partialRectangle;html=1;whiteSpace=wrap;connectable=0;fillColor=none;top=0;left=0;bottom=0;right=0;overflow=hidden;fontFamily=Helvetica;fontColor=#5C5C5C;labelBackgroundColor=none;labelBorderColor=none;strokeColor=#006658;fontSize=13;" parent="246" vertex="1">
                    <mxGeometry width="89" height="30" as="geometry"/>
                </mxCell>
                <mxCell id="248" value="int - PK" style="shape=partialRectangle;html=1;whiteSpace=wrap;connectable=0;fillColor=none;top=0;left=0;bottom=0;right=0;align=left;spacingLeft=6;overflow=hidden;fontFamily=Helvetica;fontColor=#5C5C5C;labelBackgroundColor=none;labelBorderColor=none;strokeColor=#006658;fontSize=13;" parent="246" vertex="1">
                    <mxGeometry x="89" width="111" height="30" as="geometry"/>
                </mxCell>
                <mxCell id="249" value="" style="shape=partialRectangle;html=1;whiteSpace=wrap;collapsible=0;dropTarget=0;pointerEvents=0;fillColor=none;top=0;left=0;bottom=0;right=0;points=[[0,0.5],[1,0.5]];portConstraint=eastwest;fontFamily=Helvetica;fontColor=#5C5C5C;labelBackgroundColor=none;labelBorderColor=none;fontSize=13;strokeColor=#006658;" parent="245" vertex="1">
                    <mxGeometry y="60" width="200" height="30" as="geometry"/>
                </mxCell>
                <mxCell id="250" value="Title" style="shape=partialRectangle;html=1;whiteSpace=wrap;connectable=0;fillColor=none;top=0;left=0;bottom=0;right=0;overflow=hidden;fontFamily=Helvetica;fontColor=#5C5C5C;labelBackgroundColor=none;labelBorderColor=none;fontSize=13;strokeColor=#006658;" parent="249" vertex="1">
                    <mxGeometry width="89" height="30" as="geometry"/>
                </mxCell>
                <mxCell id="251" value="CharField(50)" style="shape=partialRectangle;html=1;whiteSpace=wrap;connectable=0;fillColor=none;top=0;left=0;bottom=0;right=0;align=left;spacingLeft=6;overflow=hidden;fontFamily=Helvetica;fontColor=#5C5C5C;labelBackgroundColor=none;labelBorderColor=none;fontSize=13;strokeColor=#006658;" parent="249" vertex="1">
                    <mxGeometry x="89" width="111" height="30" as="geometry"/>
                </mxCell>
                <mxCell id="252" value="" style="shape=partialRectangle;html=1;whiteSpace=wrap;collapsible=0;dropTarget=0;pointerEvents=0;fillColor=none;top=0;left=0;bottom=0;right=0;points=[[0,0.5],[1,0.5]];portConstraint=eastwest;fontFamily=Helvetica;fontColor=#5C5C5C;labelBackgroundColor=none;labelBorderColor=none;fontSize=13;strokeColor=#006658;" parent="245" vertex="1">
                    <mxGeometry y="90" width="200" height="30" as="geometry"/>
                </mxCell>
                <mxCell id="253" value="Singer" style="shape=partialRectangle;html=1;whiteSpace=wrap;connectable=0;fillColor=none;top=0;left=0;bottom=0;right=0;overflow=hidden;fontFamily=Helvetica;fontColor=#5C5C5C;labelBackgroundColor=none;labelBorderColor=none;fontSize=13;strokeColor=#006658;" parent="252" vertex="1">
                    <mxGeometry width="89" height="30" as="geometry"/>
                </mxCell>
                <mxCell id="254" value="CharField(50)" style="shape=partialRectangle;html=1;whiteSpace=wrap;connectable=0;fillColor=none;top=0;left=0;bottom=0;right=0;align=left;spacingLeft=6;overflow=hidden;fontFamily=Helvetica;fontColor=#5C5C5C;labelBackgroundColor=none;labelBorderColor=none;fontSize=13;strokeColor=#006658;" parent="252" vertex="1">
                    <mxGeometry x="89" width="111" height="30" as="geometry"/>
                </mxCell>
                <mxCell id="262" value="" style="shape=partialRectangle;html=1;whiteSpace=wrap;collapsible=0;dropTarget=0;pointerEvents=0;fillColor=none;top=0;left=0;bottom=0;right=0;points=[[0,0.5],[1,0.5]];portConstraint=eastwest;fontFamily=Helvetica;fontColor=#5C5C5C;labelBackgroundColor=none;labelBorderColor=none;fontSize=13;strokeColor=#006658;" parent="245" vertex="1">
                    <mxGeometry y="120" width="200" height="30" as="geometry"/>
                </mxCell>
                <mxCell id="263" value="Category" style="shape=partialRectangle;html=1;whiteSpace=wrap;connectable=0;fillColor=none;top=0;left=0;bottom=0;right=0;overflow=hidden;fontFamily=Helvetica;fontColor=#5C5C5C;labelBackgroundColor=none;labelBorderColor=none;fontSize=13;strokeColor=#006658;" parent="262" vertex="1">
                    <mxGeometry width="89" height="30" as="geometry"/>
                </mxCell>
                <mxCell id="264" value="CharField(30)" style="shape=partialRectangle;html=1;whiteSpace=wrap;connectable=0;fillColor=none;top=0;left=0;bottom=0;right=0;align=left;spacingLeft=6;overflow=hidden;fontFamily=Helvetica;fontColor=#5C5C5C;labelBackgroundColor=none;labelBorderColor=none;fontSize=13;strokeColor=#006658;" parent="262" vertex="1">
                    <mxGeometry x="89" width="111" height="30" as="geometry"/>
                </mxCell>
                <mxCell id="268" value="" style="shape=partialRectangle;html=1;whiteSpace=wrap;collapsible=0;dropTarget=0;pointerEvents=0;fillColor=none;top=0;left=0;bottom=0;right=0;points=[[0,0.5],[1,0.5]];portConstraint=eastwest;fontFamily=Helvetica;fontColor=#5C5C5C;labelBackgroundColor=none;labelBorderColor=none;fontSize=13;strokeColor=#006658;" parent="245" vertex="1">
                    <mxGeometry y="150" width="200" height="30" as="geometry"/>
                </mxCell>
                <mxCell id="269" value="Reference" style="shape=partialRectangle;html=1;whiteSpace=wrap;connectable=0;fillColor=none;top=0;left=0;bottom=0;right=0;overflow=hidden;fontFamily=Helvetica;fontColor=#5C5C5C;labelBackgroundColor=none;labelBorderColor=none;fontSize=13;strokeColor=#006658;" parent="268" vertex="1">
                    <mxGeometry width="89" height="30" as="geometry"/>
                </mxCell>
                <mxCell id="270" value="CharField(255)" style="shape=partialRectangle;html=1;whiteSpace=wrap;connectable=0;fillColor=none;top=0;left=0;bottom=0;right=0;align=left;spacingLeft=6;overflow=hidden;fontFamily=Helvetica;fontColor=#5C5C5C;labelBackgroundColor=none;labelBorderColor=none;fontSize=13;strokeColor=#006658;" parent="268" vertex="1">
                    <mxGeometry x="89" width="111" height="30" as="geometry"/>
                </mxCell>
                <mxCell id="271" value="" style="shape=partialRectangle;html=1;whiteSpace=wrap;collapsible=0;dropTarget=0;pointerEvents=0;fillColor=none;top=0;left=0;bottom=0;right=0;points=[[0,0.5],[1,0.5]];portConstraint=eastwest;fontFamily=Helvetica;fontColor=#5C5C5C;labelBackgroundColor=none;labelBorderColor=none;fontSize=13;strokeColor=#006658;" parent="245" vertex="1">
                    <mxGeometry y="180" width="200" height="30" as="geometry"/>
                </mxCell>
                <mxCell id="272" value="Description" style="shape=partialRectangle;html=1;whiteSpace=wrap;connectable=0;fillColor=none;top=0;left=0;bottom=0;right=0;overflow=hidden;fontFamily=Helvetica;fontColor=#5C5C5C;labelBackgroundColor=none;labelBorderColor=none;fontSize=13;strokeColor=#006658;" parent="271" vertex="1">
                    <mxGeometry width="89" height="30" as="geometry"/>
                </mxCell>
                <mxCell id="273" value="TextField" style="shape=partialRectangle;html=1;whiteSpace=wrap;connectable=0;fillColor=none;top=0;left=0;bottom=0;right=0;align=left;spacingLeft=6;overflow=hidden;fontFamily=Helvetica;fontColor=#5C5C5C;labelBackgroundColor=none;labelBorderColor=none;fontSize=13;strokeColor=#006658;" parent="271" vertex="1">
                    <mxGeometry x="89" width="111" height="30" as="geometry"/>
                </mxCell>
                <mxCell id="255" value="" style="endArrow=none;html=1;fontFamily=Helvetica;fontSize=13;fontColor=#5C5C5C;labelBackgroundColor=none;labelBorderColor=none;strokeColor=#006658;endFill=0;entryX=0.5;entryY=0;entryDx=0;entryDy=0;" parent="1" target="245" edge="1">
                    <mxGeometry relative="1" as="geometry">
                        <mxPoint x="1930" y="500" as="sourcePoint"/>
                        <mxPoint x="1940" y="580" as="targetPoint"/>
                    </mxGeometry>
                </mxCell>
                <mxCell id="256" value="Song&lt;br style=&quot;font-size: 13px&quot;&gt;can have Combinations" style="edgeLabel;resizable=0;html=1;align=center;verticalAlign=middle;fontFamily=Helvetica;fontColor=#5C5C5C;labelBorderColor=none;fontSize=13;labelBackgroundColor=none;" parent="255" connectable="0" vertex="1">
                    <mxGeometry relative="1" as="geometry">
                        <mxPoint x="-2" as="offset"/>
                    </mxGeometry>
                </mxCell>
                <mxCell id="257" value="1..1" style="edgeLabel;resizable=0;html=1;align=left;verticalAlign=bottom;fontFamily=Helvetica;fontColor=#5C5C5C;labelBackgroundColor=none;labelBorderColor=none;fontSize=13;" parent="255" connectable="0" vertex="1">
                    <mxGeometry x="-1" relative="1" as="geometry">
                        <mxPoint x="-31" y="20" as="offset"/>
                    </mxGeometry>
                </mxCell>
                <mxCell id="258" value="0..*" style="edgeLabel;resizable=0;html=1;align=right;verticalAlign=bottom;fontFamily=Helvetica;fontColor=#5C5C5C;labelBackgroundColor=none;labelBorderColor=none;fontSize=13;" parent="255" connectable="0" vertex="1">
                    <mxGeometry x="1" relative="1" as="geometry">
                        <mxPoint x="-10" as="offset"/>
                    </mxGeometry>
                </mxCell>
                <mxCell id="274" value="" style="endArrow=none;html=1;fontFamily=Helvetica;fontSize=13;fontColor=#5C5C5C;labelBackgroundColor=none;labelBorderColor=none;strokeColor=#006658;endFill=0;exitX=0;exitY=0;exitDx=0;exitDy=0;entryX=1.001;entryY=-0.072;entryDx=0;entryDy=0;entryPerimeter=0;" parent="1" source="245" target="184" edge="1">
                    <mxGeometry relative="1" as="geometry">
                        <mxPoint x="1830" y="550" as="sourcePoint"/>
                        <mxPoint x="1640" y="550" as="targetPoint"/>
                    </mxGeometry>
                </mxCell>
                <mxCell id="275" value="Song&lt;br style=&quot;font-size: 13px&quot;&gt;can have Covers" style="edgeLabel;resizable=0;html=1;align=center;verticalAlign=middle;fontFamily=Helvetica;fontColor=#5C5C5C;labelBorderColor=none;fontSize=13;labelBackgroundColor=none;" parent="274" connectable="0" vertex="1">
                    <mxGeometry relative="1" as="geometry">
                        <mxPoint x="-2" as="offset"/>
                    </mxGeometry>
                </mxCell>
                <mxCell id="276" value="0..*" style="edgeLabel;resizable=0;html=1;align=left;verticalAlign=bottom;fontFamily=Helvetica;fontColor=#5C5C5C;labelBackgroundColor=none;labelBorderColor=none;fontSize=13;" parent="274" connectable="0" vertex="1">
                    <mxGeometry x="-1" relative="1" as="geometry">
                        <mxPoint x="-30" y="-5" as="offset"/>
                    </mxGeometry>
                </mxCell>
                <mxCell id="277" value="1..1" style="edgeLabel;resizable=0;html=1;align=right;verticalAlign=bottom;fontFamily=Helvetica;fontColor=#5C5C5C;labelBackgroundColor=none;labelBorderColor=none;fontSize=13;" parent="274" connectable="0" vertex="1">
                    <mxGeometry x="1" relative="1" as="geometry">
                        <mxPoint x="29" y="-5" as="offset"/>
                    </mxGeometry>
                </mxCell>
                <mxCell id="47" value="&lt;span style=&quot;font-size: 13px;&quot;&gt;Instrument&lt;/span&gt;" style="whiteSpace=wrap;html=1;fontFamily=Helvetica;fontColor=#5C5C5C;labelBackgroundColor=none;labelBorderColor=none;fillColor=#21C0A5;strokeColor=#006658;fontSize=13;container=0;" parent="1" vertex="1">
                    <mxGeometry x="570" y="340" width="140" height="40.000000000000014" as="geometry"/>
                </mxCell>
                <mxCell id="27" value="User" style="whiteSpace=wrap;html=1;fontFamily=Helvetica;fontColor=#5C5C5C;labelBackgroundColor=none;labelBorderColor=none;fillColor=#21C0A5;strokeColor=#006658;fontSize=13;" parent="1" vertex="1">
                    <mxGeometry x="570" y="140" width="140" height="40.000000000000014" as="geometry"/>
                </mxCell>
                <mxCell id="37" value="Song" style="whiteSpace=wrap;html=1;fontFamily=Helvetica;fontColor=#5C5C5C;labelBackgroundColor=none;labelBorderColor=none;fillColor=#21C0A5;strokeColor=#006658;fontSize=13;" parent="1" vertex="1">
                    <mxGeometry x="570" y="180" width="140" height="40.000000000000014" as="geometry"/>
                </mxCell>
                <mxCell id="38" value="Combination" style="whiteSpace=wrap;html=1;fontFamily=Helvetica;fontColor=#5C5C5C;labelBackgroundColor=none;labelBorderColor=none;fillColor=#21C0A5;strokeColor=#006658;fontSize=13;" parent="1" vertex="1">
                    <mxGeometry x="570" y="220.00000000000003" width="140" height="40.000000000000014" as="geometry"/>
                </mxCell>
                <mxCell id="39" value="Cover" style="whiteSpace=wrap;html=1;fontFamily=Helvetica;fontColor=#5C5C5C;labelBackgroundColor=none;labelBorderColor=none;fillColor=#21C0A5;strokeColor=#006658;fontSize=13;" parent="1" vertex="1">
                    <mxGeometry x="570" y="260" width="140" height="40.000000000000014" as="geometry"/>
                </mxCell>
                <mxCell id="40" value="CoverTag" style="whiteSpace=wrap;html=1;fontFamily=Helvetica;fontColor=#5C5C5C;labelBackgroundColor=none;labelBorderColor=none;fillColor=#21C0A5;strokeColor=#006658;fontSize=13;" parent="1" vertex="1">
                    <mxGeometry x="570" y="300.00000000000006" width="140" height="40.000000000000014" as="geometry"/>
                </mxCell>
                <mxCell id="303" value="Architecture" style="text;strokeColor=none;fillColor=none;html=1;fontSize=24;fontStyle=1;verticalAlign=middle;align=center;fontColor=#5C5C5C;startSize=30;" parent="1" vertex="1">
                    <mxGeometry x="80" y="70" width="170" height="40" as="geometry"/>
                </mxCell>
                <mxCell id="304" value="Model" style="text;strokeColor=none;fillColor=none;html=1;fontSize=24;fontStyle=1;verticalAlign=middle;align=center;fontColor=#5C5C5C;startSize=30;" parent="1" vertex="1">
                    <mxGeometry x="940" y="70" width="170" height="40" as="geometry"/>
                </mxCell>
                <mxCell id="305" value="View" style="text;strokeColor=none;fillColor=none;html=1;fontSize=24;fontStyle=1;verticalAlign=middle;align=center;fontColor=#5C5C5C;startSize=30;" parent="1" vertex="1">
                    <mxGeometry x="195" y="600" width="170" height="40" as="geometry"/>
                </mxCell>
                <mxCell id="316" value="" style="endArrow=none;html=1;labelBackgroundColor=none;fontFamily=Helvetica;fontSize=13;fontColor=#5C5C5C;startSize=30;strokeColor=#006658;rounded=0;" parent="1" edge="1">
                    <mxGeometry width="50" height="50" relative="1" as="geometry">
                        <mxPoint x="1431" y="80" as="sourcePoint"/>
                        <mxPoint x="1431" y="280" as="targetPoint"/>
                        <Array as="points">
                            <mxPoint x="1380" y="80"/>
                            <mxPoint x="1381" y="280"/>
                        </Array>
                    </mxGeometry>
                </mxCell>
                <mxCell id="317" value="0..*" style="edgeLabel;resizable=0;html=1;align=left;verticalAlign=bottom;fontFamily=Helvetica;fontColor=#5C5C5C;labelBackgroundColor=none;labelBorderColor=none;fontSize=13;rotation=0;" parent="1" connectable="0" vertex="1">
                    <mxGeometry x="1392.4999999999995" y="300" as="geometry"/>
                </mxCell>
                <mxCell id="421" value="" style="endArrow=none;html=1;fontFamily=Helvetica;fontSize=13;exitX=1;exitY=0.5;exitDx=0;exitDy=0;fontColor=#5C5C5C;labelBackgroundColor=none;labelBorderColor=none;strokeColor=#006658;endFill=0;entryX=0.007;entryY=0.16;entryDx=0;entryDy=0;entryPerimeter=0;" parent="1" target="202" edge="1">
                    <mxGeometry relative="1" as="geometry">
                        <mxPoint x="1640" y="300" as="sourcePoint"/>
                        <mxPoint x="1830" y="330" as="targetPoint"/>
                    </mxGeometry>
                </mxCell>
                <mxCell id="422" value="User&lt;br style=&quot;font-size: 13px&quot;&gt;can like Combinations" style="edgeLabel;resizable=0;html=1;align=center;verticalAlign=middle;fontFamily=Helvetica;fontColor=#5C5C5C;labelBorderColor=none;fontSize=13;labelBackgroundColor=none;" parent="421" connectable="0" vertex="1">
                    <mxGeometry relative="1" as="geometry">
                        <mxPoint x="34" y="3" as="offset"/>
                    </mxGeometry>
                </mxCell>
                <mxCell id="423" value="0..*" style="edgeLabel;resizable=0;html=1;align=left;verticalAlign=bottom;fontFamily=Helvetica;fontColor=#5C5C5C;labelBackgroundColor=none;labelBorderColor=none;fontSize=13;" parent="421" connectable="0" vertex="1">
                    <mxGeometry x="-1" relative="1" as="geometry">
                        <mxPoint x="9" as="offset"/>
                    </mxGeometry>
                </mxCell>
                <mxCell id="424" value="0..*" style="edgeLabel;resizable=0;html=1;align=right;verticalAlign=bottom;fontFamily=Helvetica;fontColor=#5C5C5C;labelBackgroundColor=none;labelBorderColor=none;fontSize=13;" parent="421" connectable="0" vertex="1">
                    <mxGeometry x="1" relative="1" as="geometry">
                        <mxPoint x="-10" as="offset"/>
                    </mxGeometry>
                </mxCell>
                <mxCell id="425" value="User&lt;br style=&quot;font-size: 13px&quot;&gt;can have Followings" style="edgeLabel;resizable=0;html=1;align=center;verticalAlign=middle;fontFamily=Helvetica;fontColor=#5C5C5C;labelBorderColor=none;fontSize=13;labelBackgroundColor=none;" connectable="0" vertex="1" parent="1">
                    <mxGeometry x="1360.0028117751153" y="180.00198924099203" as="geometry"/>
                </mxCell>
            </root>
        </mxGraphModel>
    </diagram>
</mxfile>